# Blender v2.80 (sub 75) OBJ File: 'room.blend'
# www.blender.org
mtllib table.mtl
o big_table_Plane.001
v -5.909123 -1.958632 1.996094
v -5.966160 -1.958632 -46.199688
v -28.025402 -1.958632 2.022267
v -28.082438 -1.958632 -46.173515
v -5.909123 -1.247057 1.996094
v -5.966160 -1.247057 -46.199688
v -28.025402 -1.247057 2.022267
v -28.082438 -1.247057 -46.173515
vt 0.000000 1.000000
vt 1.000000 0.000000
vt 0.000000 0.000000
vt 1.000000 0.000000
vt 0.000000 1.000000
vt 0.000000 0.000000
vt 1.000000 1.000000
vt 1.000000 1.000000
vn 0.0000 -1.0000 -0.0000
vn 0.0000 1.0000 0.0000
vn -1.0000 0.0000 0.0012
vn 1.0000 0.0000 -0.0012
vn -0.0012 0.0000 -1.0000
vn 0.0012 0.0000 1.0000
usemtl None
s off
f 3/1/1 2/2/1 1/3/1
f 6/4/2 7/5/2 5/6/2
f 3/1/3 8/7/3 4/8/3
f 2/2/4 5/6/4 1/3/4
f 4/8/5 6/4/5 2/2/5
f 1/3/6 7/5/6 3/1/6
f 3/1/1 4/8/1 2/2/1
f 6/4/2 8/7/2 7/5/2
f 3/1/3 7/5/3 8/7/3
f 2/2/4 6/4/4 5/6/4
f 4/8/5 8/7/5 6/4/5
f 1/3/6 5/6/6 7/5/6
o small_table_Plane.002
v 22.748137 -1.958632 1.971410
v 22.731852 -1.958632 -11.789556
v -5.903728 -1.958632 2.005318
v -5.920013 -1.958632 -11.755648
v 22.748137 -1.247057 1.971410
v 22.731852 -1.247057 -11.789556
v -5.903728 -1.247057 2.005318
v -5.920013 -1.247057 -11.755648
vt 0.000000 1.000000
vt 1.000000 0.000000
vt 0.000000 0.000000
vt 1.000000 0.000000
vt 0.000000 1.000000
vt 0.000000 0.000000
vt 1.000000 1.000000
vt 1.000000 1.000000
vn 0.0000 -1.0000 0.0000
vn 0.0000 1.0000 0.0000
vn -1.0000 0.0000 0.0012
vn 1.0000 0.0000 -0.0012
vn -0.0012 0.0000 -1.0000
vn 0.0012 0.0000 1.0000
usemtl None
s off
f 11/9/7 10/10/7 9/11/7
f 14/12/8 15/13/8 13/14/8
f 11/9/9 16/15/9 12/16/9
f 10/10/10 13/14/10 9/11/10
f 12/16/11 14/12/11 10/10/11
f 9/11/12 15/13/12 11/9/12
f 11/9/7 12/16/7 10/10/7
f 14/12/8 16/15/8 15/13/8
f 11/9/9 15/13/9 16/15/9
f 10/10/10 14/12/10 13/14/10
f 12/16/11 16/15/11 14/12/11
f 9/11/12 13/14/12 15/13/12
